<svg width="143" height="33" viewBox="0 0 143 33" fill="none" xmlns="http://www.w3.org/2000/svg">
<path d="M7.8 23.24C11.28 23.24 14.28 20.24 14.28 14.6C14.28 8.96 11.28 5.96 7.8 5.96C4.32 5.96 1.32 8.96 1.32 14.6C1.32 20.24 4.32 23.24 7.8 23.24ZM7.8 21.44C5.4 21.44 3.24 19.16 3.24 14.6C3.24 10.04 5.4 7.76 7.8 7.76C10.2 7.76 12.36 10.04 12.36 14.6C12.36 19.16 10.2 21.44 7.8 21.44ZM19.8094 23H21.7294V6.2H19.8094V7.4C19.8094 7.88 19.5694 8.12 19.0894 8.12H16.2094V9.8H19.8094V23Z" fill="#333333"/>
<path d="M120.704 23.24C124.184 23.24 127.184 20.24 127.184 14.6C127.184 8.96 124.184 5.96 120.704 5.96C117.224 5.96 114.224 8.96 114.224 14.6C114.224 20.24 117.224 23.24 120.704 23.24ZM120.704 21.44C118.304 21.44 116.144 19.16 116.144 14.6C116.144 10.04 118.304 7.76 120.704 7.76C123.104 7.76 125.264 10.04 125.264 14.6C125.264 19.16 123.104 21.44 120.704 21.44ZM135.113 23.24C138.473 23.24 140.873 20.84 140.873 17.528C140.873 14.24 138.353 11.84 135.473 11.84C134.153 11.84 132.953 12.2 132.113 12.92H131.993L132.521 8H139.913V6.2H130.913L129.953 15.08H131.993C132.713 14.12 133.913 13.64 135.233 13.64C137.393 13.64 138.953 15.2 138.953 17.528C138.953 19.76 137.273 21.44 135.113 21.44C133.313 21.44 131.873 20.36 131.513 18.56H129.593C129.953 21.56 132.353 23.24 135.113 23.24Z" fill="#BDBDBD"/>
<line y1="-1" x2="43.8219" y2="-1" transform="matrix(-0.706805 0.707408 -0.706805 -0.707408 80.9309 0)" stroke="#E0E0E0" stroke-width="2"/>
</svg>
